<?xml version="1.0" encoding="UTF-8" standalone="no"?>
<!DOCTYPE svg PUBLIC "-//W3C//DTD SVG 1.1//EN" "http://www.w3.org/Graphics/SVG/1.1/DTD/svg11.dtd">
<svg width="100%" height="100%" viewBox="0 0 506 21" version="1.1" xmlns="http://www.w3.org/2000/svg" xmlns:xlink="http://www.w3.org/1999/xlink" xml:space="preserve" xmlns:serif="http://www.serif.com/" style="fill-rule:evenodd;clip-rule:evenodd;stroke-linejoin:round;stroke-miterlimit:2;">
    <g transform="matrix(1,0,0,1,-482.74,-340.448)">
        <path d="M488.74,349.797C506.968,346.624 524.773,346.476 543.326,346.476C565.011,346.476 586.696,346.344 608.38,346.658C645.402,347.193 682.511,346.854 719.516,348.116C759.192,349.47 798.746,352.664 838.449,353.597C886.587,354.729 934.185,358.002 981.956,350.651" style="fill:white;"/>
        <path d="M489.254,352.752C496.44,351.501 503.56,350.729 510.687,350.25C521.467,349.527 532.263,349.476 543.326,349.476L608.336,349.657C634.249,350.032 660.205,349.978 686.138,350.345C697.236,350.502 708.329,350.737 719.413,351.115C747.175,352.062 774.876,353.91 802.611,355.254C814.525,355.831 826.445,356.316 838.378,356.596C867.307,357.276 896.041,358.727 924.734,358.189C943.963,357.828 963.174,356.576 982.413,353.616C984.049,353.364 985.173,351.831 984.921,350.194C984.67,348.558 983.136,347.434 981.5,347.685C962.528,350.605 943.584,351.834 924.622,352.19C896.012,352.726 867.363,351.276 838.519,350.598C826.636,350.318 814.765,349.836 802.901,349.261C775.138,347.916 747.408,346.066 719.618,345.118C708.494,344.739 697.361,344.504 686.223,344.346C660.291,343.979 634.336,344.033 608.423,343.658L543.326,343.476C532.126,343.476 521.198,343.531 510.285,344.264C502.95,344.756 495.622,345.554 488.225,346.841C486.594,347.125 485.5,348.68 485.784,350.311C486.068,351.942 487.623,353.036 489.254,352.752Z" style="fill:white;"/>
    </g>
</svg>
